M48
; DRILL file {KiCad 7.0.10} date Mon Apr 22 12:46:01 2024
; FORMAT={-:-/ absolute / inch / decimal}
; #@! TF.CreationDate,2024-04-22T12:46:01-04:00
; #@! TF.GenerationSoftware,Kicad,Pcbnew,7.0.10
; #@! TF.FileFunction,Plated,1,2,PTH
FMAT,2
INCH
; #@! TA.AperFunction,Plated,PTH,ViaDrill
T1C0.0313
; #@! TA.AperFunction,Plated,PTH,ComponentDrill
T2C0.0313
; #@! TA.AperFunction,Plated,PTH,ComponentDrill
T3C0.0315
; #@! TA.AperFunction,Plated,PTH,ComponentDrill
T4C0.0354
; #@! TA.AperFunction,Plated,PTH,ComponentDrill
T5C0.0394
%
G90
G05
T1
X0.75Y-2.05
X1.2Y-1.8
X1.9Y-0.85
X2.0Y-0.65
X2.0Y-1.95
X2.0Y-2.45
X2.1Y-2.7
X2.2Y-2.6
X2.25Y-0.55
X3.45Y-1.3
T2
X0.65Y-0.65
X0.65Y-0.75
X0.65Y-0.85
X0.65Y-0.95
X0.65Y-1.05
X0.65Y-1.15
X0.65Y-1.25
X0.65Y-1.35
X0.65Y-1.45
X0.65Y-1.55
X0.65Y-1.65
X0.65Y-1.75
X0.65Y-1.85
X0.65Y-1.95
X0.65Y-2.05
X1.65Y-0.65
X1.65Y-0.75
X1.65Y-0.85
X1.65Y-0.95
X1.65Y-1.05
X1.65Y-1.15
X1.65Y-1.25
X1.65Y-1.35
X1.65Y-1.45
X1.65Y-1.55
X1.65Y-1.65
X1.65Y-1.75
X1.65Y-1.85
X1.65Y-1.95
X1.65Y-2.05
X2.0Y-2.8
X2.1Y-2.8
X2.15Y-0.55
X2.15Y-0.65
X2.15Y-0.75
X2.15Y-0.85
X2.15Y-0.95
X2.15Y-1.05
X2.2Y-2.8
X2.3Y-2.8
X2.4Y-2.8
X2.5Y-2.8
X2.6Y-2.8
T3
X2.95Y-1.4
X2.95Y-1.65
X2.95Y-1.9
X2.95Y-2.15
X2.95Y-2.4
X2.95Y-2.65
X3.25Y-1.4
X3.25Y-1.65
X3.25Y-1.9
X3.25Y-2.15
X3.25Y-2.4
X3.25Y-2.65
T4
X3.35Y-1.4
X3.35Y-1.65
X3.35Y-1.9
X3.35Y-2.15
X3.35Y-2.4
X3.35Y-2.65
X3.45Y-1.4
X3.45Y-1.65
X3.45Y-1.9
X3.45Y-2.15
X3.45Y-2.4
X3.45Y-2.65
T5
X0.3Y-1.95
X0.3Y-2.05
X0.301Y-1.1504
X0.301Y-1.2504
X0.301Y-1.3504
X0.301Y-1.4504
M30
