%TF.GenerationSoftware,KiCad,Pcbnew,7.0.10*%
%TF.CreationDate,2024-04-22T12:45:59-04:00*%
%TF.ProjectId,ping_pong_esp32,70696e67-5f70-46f6-9e67-5f6573703332,rev?*%
%TF.SameCoordinates,Original*%
%TF.FileFunction,Soldermask,Top*%
%TF.FilePolarity,Negative*%
%FSLAX46Y46*%
G04 Gerber Fmt 4.6, Leading zero omitted, Abs format (unit mm)*
G04 Created by KiCad (PCBNEW 7.0.10) date 2024-04-22 12:45:59*
%MOMM*%
%LPD*%
G01*
G04 APERTURE LIST*
G04 Aperture macros list*
%AMRoundRect*
0 Rectangle with rounded corners*
0 $1 Rounding radius*
0 $2 $3 $4 $5 $6 $7 $8 $9 X,Y pos of 4 corners*
0 Add a 4 corners polygon primitive as box body*
4,1,4,$2,$3,$4,$5,$6,$7,$8,$9,$2,$3,0*
0 Add four circle primitives for the rounded corners*
1,1,$1+$1,$2,$3*
1,1,$1+$1,$4,$5*
1,1,$1+$1,$6,$7*
1,1,$1+$1,$8,$9*
0 Add four rect primitives between the rounded corners*
20,1,$1+$1,$2,$3,$4,$5,0*
20,1,$1+$1,$4,$5,$6,$7,0*
20,1,$1+$1,$6,$7,$8,$9,0*
20,1,$1+$1,$8,$9,$2,$3,0*%
G04 Aperture macros list end*
%ADD10C,3.200000*%
%ADD11C,1.800000*%
%ADD12R,1.800000X1.800000*%
%ADD13R,1.700000X1.700000*%
%ADD14O,1.700000X1.700000*%
%ADD15C,1.700000*%
%ADD16RoundRect,0.102000X-0.850000X-0.850000X0.850000X-0.850000X0.850000X0.850000X-0.850000X0.850000X0*%
%ADD17C,1.904000*%
%ADD18C,1.600000*%
%ADD19O,1.600000X1.600000*%
G04 APERTURE END LIST*
D10*
%TO.C,H104*%
X95000000Y-72000000D03*
%TD*%
%TO.C,H103*%
X5000000Y-72000000D03*
%TD*%
%TO.C,H102*%
X95000000Y-5000000D03*
%TD*%
%TO.C,H101*%
X5000000Y-5000000D03*
%TD*%
D11*
%TO.C,D106*%
X85090000Y-35560000D03*
D12*
X87630000Y-35560000D03*
%TD*%
%TO.C,D105*%
X87630000Y-41910000D03*
D11*
X85090000Y-41910000D03*
%TD*%
D12*
%TO.C,D104*%
X87630000Y-48260000D03*
D11*
X85090000Y-48260000D03*
%TD*%
D12*
%TO.C,D103*%
X87630000Y-54610000D03*
D11*
X85090000Y-54610000D03*
%TD*%
D12*
%TO.C,D102*%
X87630000Y-60960000D03*
D11*
X85090000Y-60960000D03*
%TD*%
D13*
%TO.C,J102*%
X7620000Y-49530000D03*
D14*
X7620000Y-52070000D03*
%TD*%
D13*
%TO.C,J101*%
X7645000Y-29220000D03*
D14*
X7645000Y-31760000D03*
X7645000Y-34300000D03*
X7645000Y-36840000D03*
%TD*%
D15*
%TO.C,U103*%
X66040000Y-71120000D03*
X63500000Y-71120000D03*
X60960000Y-71120000D03*
X58420000Y-71120000D03*
X55880000Y-71120000D03*
X53340000Y-71120000D03*
X50800000Y-71120000D03*
%TD*%
D16*
%TO.C,U102*%
X16510000Y-16510000D03*
D17*
X16510000Y-19050000D03*
X16510000Y-21590000D03*
X16510000Y-24130000D03*
X16510000Y-26670000D03*
X16510000Y-29210000D03*
X16510000Y-31750000D03*
X16510000Y-34290000D03*
X16510000Y-36830000D03*
X16510000Y-39370000D03*
X16510000Y-41910000D03*
X16510000Y-44450000D03*
X16510000Y-46990000D03*
X16510000Y-49530000D03*
X16510000Y-52070000D03*
X41910000Y-52070000D03*
X41910000Y-49530000D03*
X41910000Y-46990000D03*
X41910000Y-44450000D03*
X41910000Y-41910000D03*
X41910000Y-39370000D03*
X41910000Y-36830000D03*
X41910000Y-34290000D03*
X41910000Y-31750000D03*
X41910000Y-29210000D03*
X41910000Y-26670000D03*
X41910000Y-24130000D03*
X41910000Y-21590000D03*
X41910000Y-19050000D03*
X41910000Y-16510000D03*
%TD*%
D15*
%TO.C,U101*%
X54610000Y-26670000D03*
X54610000Y-24130000D03*
X54610000Y-21590000D03*
X54610000Y-19050000D03*
X54610000Y-16510000D03*
X54610000Y-13970000D03*
%TD*%
D18*
%TO.C,R106*%
X74930000Y-35560000D03*
D19*
X82550000Y-35560000D03*
%TD*%
D18*
%TO.C,R105*%
X74930000Y-41910000D03*
D19*
X82550000Y-41910000D03*
%TD*%
D18*
%TO.C,R104*%
X74930000Y-48260000D03*
D19*
X82550000Y-48260000D03*
%TD*%
D18*
%TO.C,R103*%
X74930000Y-54610000D03*
D19*
X82550000Y-54610000D03*
%TD*%
D18*
%TO.C,R102*%
X74930000Y-60960000D03*
D19*
X82550000Y-60960000D03*
%TD*%
D18*
%TO.C,R101*%
X74930000Y-67310000D03*
D19*
X82550000Y-67310000D03*
%TD*%
D12*
%TO.C,D101*%
X87630000Y-67310000D03*
D11*
X85090000Y-67310000D03*
%TD*%
M02*
